# xmcd
#
# Track frame offsets:
#	150
#	12839
#	36161
#	56003
#	73772
#	90246
#	105379
#	128617
#	146704
#	163527
#	180941
#	198728
#	220337
#	241192
#	261825
#	278915
#	297536
#
# Disc length: 4196 seconds
#
# Revision: 1
# Processed by: cddbd v1.5.2PL0 Copyright (c) Steve Scherf et al.
# Submitted via: audiograbber 1.83.01
#
DISCID=f6106211
DTITLE=Best Of Rock - Hard Rock
DYEAR=1900
DGENRE=Rock
TTITLE0=Black Sabbath - Paranoid
TTITLE1=Argent - Thunder And Lightning
TTITLE2=Fuel - Sunburn
TTITLE3=Bachmann-Turner Overdrive - Roll On Down The Highway
TTITLE4=Stereomud - Pain
TTITLE5=Nazareth - Hair Of The Dog
TTITLE6=Uriah Heep - Look At Yourself
TTITLE7=The Babys - Head First
TTITLE8=Gotthard - Make My Day
TTITLE9=Golden Earring - Back Home
TTITLE10=Free - Fire And Water
TTITLE11=Nightwish - She Is My Sin
TTITLE12=Saxxon - Strong Arm Of The Law
TTITLE13=Sammy Hagar - This Planet's On Fire (Burn In Hell)
TTITLE14=Deep Purple - Strange Kind Of Woman
TTITLE15=UFO - Only You Can Rock Me
TTITLE16=Heart - How Can I Refuse
EXTD=
EXTT0=
EXTT1=
EXTT2=
EXTT3=
EXTT4=
EXTT5=
EXTT6=
EXTT7=
EXTT8=
EXTT9=
EXTT10=
EXTT11=
EXTT12=
EXTT13=
EXTT14=
EXTT15=
EXTT16=
PLAYORDER=
